<svg xmlns="http://www.w3.org/2000/svg" xmlns:xlink="http://www.w3.org/1999/xlink" width="1600" height="984" viewBox="0 0 1600 984"><defs><filter id="grey"><feColorMatrix type="saturate" values="0"/></filter></defs><rect width="1600" height="984" fill="#f7f7f4"/><text x="60" y="78" font-family="system-ui,-apple-system,'Segoe UI',Helvetica,Arial,sans-serif" font-size="40" font-weight="700" fill="#161616">Duit Aing — Konsep Identitas Logo</text><text x="60" y="116" font-family="system-ui,-apple-system,'Segoe UI',Helvetica,Arial,sans-serif" font-size="20" fill="#6b6b6b">Eksplorasi Monokromatik &amp; Skala Uji 64px / 32px / 16px</text><rect x="60" y="150" width="474.667" height="774" rx="18" fill="#fff" stroke="#161616" stroke-width="2"/><g filter="url(#grey)"><svg xmlns="http://www.w3.org/2000/svg" role="img" aria-labelledby="title-a" viewBox="0 0 256 256" x="90" y="190" width="414.667" height="300" preserveAspectRatio="xMidYMid meet">
  <title id="c0-title-a">Duit Aing — Konsep A: The Vault Monogram</title>
  <!-- Architectural 'D' Monogram with rounded spine and precision vault aperture -->
  <path fill="#121614" fill-rule="evenodd" d="
    M 56 36
    L 128 36
    A 92 92 0 0 1 220 128
    A 92 92 0 0 1 128 220
    L 56 220
    A 20 20 0 0 1 36 200
    L 36 56
    A 20 20 0 0 1 56 36
    Z
    M 124 82
    A 46 46 0 1 0 124.1 82
    Z
  "/>
  <!-- Central Vault Core Token -->
  <circle cx="124" cy="128" r="22" fill="#121614"/>
</svg>
</g><g filter="url(#grey)"><svg xmlns="http://www.w3.org/2000/svg" role="img" aria-labelledby="title-a-lockup" viewBox="0 0 800 256" x="90" y="514" width="414.667" height="120" preserveAspectRatio="xMidYMid meet">
  <title id="l0-title-a-lockup">Duit Aing — Lockup A</title>
  <!-- Symbol A (The Vault Monogram) -->
  <g id="l0-symbol">
    <path fill="#121614" fill-rule="evenodd" d="
      M 56 36
      L 128 36
      A 92 92 0 0 1 220 128
      A 92 92 0 0 1 128 220
      L 56 220
      A 20 20 0 0 1 36 200
      L 36 56
      A 20 20 0 0 1 56 36
      Z
      M 124 82
      A 46 46 0 1 0 124.1 82
      Z
    "/>
    <circle cx="124" cy="128" r="22" fill="#121614"/>
  </g>
  <!-- Wordmark -->
  <g id="l0-wordmark">
    <text x="264" y="142" font-family="'Plus Jakarta Sans', Arial, sans-serif" font-weight="900" font-size="72" letter-spacing="2" fill="#121614">DUIT AING</text>
    <text x="268" y="182" font-family="'Plus Jakarta Sans', Arial, sans-serif" font-weight="700" font-size="20" letter-spacing="3" fill="#121614" opacity="0.6">MANAJEMEN KAS PRIBADI</text>
  </g>
</svg>
</g><g filter="url(#grey)"><svg xmlns="http://www.w3.org/2000/svg" role="img" aria-labelledby="title-a" viewBox="0 0 256 256" x="90" y="660" width="64" height="64" preserveAspectRatio="xMidYMid meet">
  <title id="s064-title-a">Duit Aing — Konsep A: The Vault Monogram</title>
  <!-- Architectural 'D' Monogram with rounded spine and precision vault aperture -->
  <path fill="#121614" fill-rule="evenodd" d="
    M 56 36
    L 128 36
    A 92 92 0 0 1 220 128
    A 92 92 0 0 1 128 220
    L 56 220
    A 20 20 0 0 1 36 200
    L 36 56
    A 20 20 0 0 1 56 36
    Z
    M 124 82
    A 46 46 0 1 0 124.1 82
    Z
  "/>
  <!-- Central Vault Core Token -->
  <circle cx="124" cy="128" r="22" fill="#121614"/>
</svg>
</g><text x="122" y="744" font-family="system-ui,-apple-system,'Segoe UI',Helvetica,Arial,sans-serif" font-size="12" fill="#8a8a8a" text-anchor="middle">64px</text><g filter="url(#grey)"><svg xmlns="http://www.w3.org/2000/svg" role="img" aria-labelledby="title-a" viewBox="0 0 256 256" x="180" y="692" width="32" height="32" preserveAspectRatio="xMidYMid meet">
  <title id="s032-title-a">Duit Aing — Konsep A: The Vault Monogram</title>
  <!-- Architectural 'D' Monogram with rounded spine and precision vault aperture -->
  <path fill="#121614" fill-rule="evenodd" d="
    M 56 36
    L 128 36
    A 92 92 0 0 1 220 128
    A 92 92 0 0 1 128 220
    L 56 220
    A 20 20 0 0 1 36 200
    L 36 56
    A 20 20 0 0 1 56 36
    Z
    M 124 82
    A 46 46 0 1 0 124.1 82
    Z
  "/>
  <!-- Central Vault Core Token -->
  <circle cx="124" cy="128" r="22" fill="#121614"/>
</svg>
</g><text x="196" y="744" font-family="system-ui,-apple-system,'Segoe UI',Helvetica,Arial,sans-serif" font-size="12" fill="#8a8a8a" text-anchor="middle">32px</text><g filter="url(#grey)"><svg xmlns="http://www.w3.org/2000/svg" role="img" aria-labelledby="title-a" viewBox="0 0 256 256" x="238" y="708" width="16" height="16" preserveAspectRatio="xMidYMid meet">
  <title id="s016-title-a">Duit Aing — Konsep A: The Vault Monogram</title>
  <!-- Architectural 'D' Monogram with rounded spine and precision vault aperture -->
  <path fill="#121614" fill-rule="evenodd" d="
    M 56 36
    L 128 36
    A 92 92 0 0 1 220 128
    A 92 92 0 0 1 128 220
    L 56 220
    A 20 20 0 0 1 36 200
    L 36 56
    A 20 20 0 0 1 56 36
    Z
    M 124 82
    A 46 46 0 1 0 124.1 82
    Z
  "/>
  <!-- Central Vault Core Token -->
  <circle cx="124" cy="128" r="22" fill="#121614"/>
</svg>
</g><text x="246" y="744" font-family="system-ui,-apple-system,'Segoe UI',Helvetica,Arial,sans-serif" font-size="12" fill="#8a8a8a" text-anchor="middle">16px</text><text x="90.0" y="780" font-family="system-ui,-apple-system,'Segoe UI',Helvetica,Arial,sans-serif" font-size="26" font-weight="700" fill="#161616">A · The Vault Monogram</text><text x="90.0" y="808" font-family="system-ui,-apple-system,'Segoe UI',Helvetica,Arial,sans-serif" font-size="15" font-weight="700" fill="#161616" letter-spacing="1.5">RECOMMENDED</text><text x="90.0" y="842" font-family="system-ui,-apple-system,'Segoe UI',Helvetica,Arial,sans-serif" font-size="19" fill="#555">Letterform &#x27;D&#x27; kokoh dengan aperture</text><text x="90.0" y="868" font-family="system-ui,-apple-system,'Segoe UI',Helvetica,Arial,sans-serif" font-size="19" fill="#555">brankas &amp; token saldo inti</text><rect x="562.667" y="150" width="474.667" height="774" rx="18" fill="#fff" stroke="#e4e4e0" stroke-width="1"/><g filter="url(#grey)"><svg xmlns="http://www.w3.org/2000/svg" role="img" aria-labelledby="title-b" viewBox="0 0 256 256" x="592.667" y="190" width="414.667" height="300" preserveAspectRatio="xMidYMid meet">
  <title id="c1-title-b">Duit Aing — Konsep B: The Cashflow Prism</title>
  <!-- Isometric Hexagonal Vault: Three dynamic financial streams converging into a secure core -->
  <!-- Top Facet (Pemasukan) -->
  <path fill="#121614" d="
    M 128 36
    L 208 82
    L 136 123
    L 128 119
    L 120 123
    L 48 82
    Z
  "/>
  <!-- Bottom-Left Facet (Aset & Simpanan) -->
  <path fill="#121614" d="
    M 44 94
    L 120 138
    L 120 220
    L 44 176
    Z
  "/>
  <!-- Bottom-Right Facet (Alokasi & Anggaran) -->
  <path fill="#121614" d="
    M 212 94
    L 212 176
    L 136 220
    L 136 138
    Z
  "/>
</svg>
</g><g filter="url(#grey)"><svg xmlns="http://www.w3.org/2000/svg" role="img" aria-labelledby="title-b-lockup" viewBox="0 0 800 256" x="592.667" y="514" width="414.667" height="120" preserveAspectRatio="xMidYMid meet">
  <title id="l1-title-b-lockup">Duit Aing — Lockup B</title>
  <!-- Symbol B (The Cashflow Prism) -->
  <g id="l1-symbol">
    <path fill="#121614" d="
      M 128 36
      L 208 82
      L 136 123
      L 128 119
      L 120 123
      L 48 82
      Z
    "/>
    <path fill="#121614" d="
      M 44 94
      L 120 138
      L 120 220
      L 44 176
      Z
    "/>
    <path fill="#121614" d="
      M 212 94
      L 212 176
      L 136 220
      L 136 138
      Z
    "/>
  </g>
  <!-- Wordmark -->
  <g id="l1-wordmark">
    <text x="264" y="142" font-family="'Plus Jakarta Sans', Arial, sans-serif" font-weight="900" font-size="72" letter-spacing="2" fill="#121614">DUIT AING</text>
    <text x="268" y="182" font-family="'Plus Jakarta Sans', Arial, sans-serif" font-weight="700" font-size="20" letter-spacing="3" fill="#121614" opacity="0.6">MANAJEMEN KAS PRIBADI</text>
  </g>
</svg>
</g><g filter="url(#grey)"><svg xmlns="http://www.w3.org/2000/svg" role="img" aria-labelledby="title-b" viewBox="0 0 256 256" x="592.667" y="660" width="64" height="64" preserveAspectRatio="xMidYMid meet">
  <title id="s164-title-b">Duit Aing — Konsep B: The Cashflow Prism</title>
  <!-- Isometric Hexagonal Vault: Three dynamic financial streams converging into a secure core -->
  <!-- Top Facet (Pemasukan) -->
  <path fill="#121614" d="
    M 128 36
    L 208 82
    L 136 123
    L 128 119
    L 120 123
    L 48 82
    Z
  "/>
  <!-- Bottom-Left Facet (Aset & Simpanan) -->
  <path fill="#121614" d="
    M 44 94
    L 120 138
    L 120 220
    L 44 176
    Z
  "/>
  <!-- Bottom-Right Facet (Alokasi & Anggaran) -->
  <path fill="#121614" d="
    M 212 94
    L 212 176
    L 136 220
    L 136 138
    Z
  "/>
</svg>
</g><text x="624.667" y="744" font-family="system-ui,-apple-system,'Segoe UI',Helvetica,Arial,sans-serif" font-size="12" fill="#8a8a8a" text-anchor="middle">64px</text><g filter="url(#grey)"><svg xmlns="http://www.w3.org/2000/svg" role="img" aria-labelledby="title-b" viewBox="0 0 256 256" x="682.667" y="692" width="32" height="32" preserveAspectRatio="xMidYMid meet">
  <title id="s132-title-b">Duit Aing — Konsep B: The Cashflow Prism</title>
  <!-- Isometric Hexagonal Vault: Three dynamic financial streams converging into a secure core -->
  <!-- Top Facet (Pemasukan) -->
  <path fill="#121614" d="
    M 128 36
    L 208 82
    L 136 123
    L 128 119
    L 120 123
    L 48 82
    Z
  "/>
  <!-- Bottom-Left Facet (Aset & Simpanan) -->
  <path fill="#121614" d="
    M 44 94
    L 120 138
    L 120 220
    L 44 176
    Z
  "/>
  <!-- Bottom-Right Facet (Alokasi & Anggaran) -->
  <path fill="#121614" d="
    M 212 94
    L 212 176
    L 136 220
    L 136 138
    Z
  "/>
</svg>
</g><text x="698.667" y="744" font-family="system-ui,-apple-system,'Segoe UI',Helvetica,Arial,sans-serif" font-size="12" fill="#8a8a8a" text-anchor="middle">32px</text><g filter="url(#grey)"><svg xmlns="http://www.w3.org/2000/svg" role="img" aria-labelledby="title-b" viewBox="0 0 256 256" x="740.667" y="708" width="16" height="16" preserveAspectRatio="xMidYMid meet">
  <title id="s116-title-b">Duit Aing — Konsep B: The Cashflow Prism</title>
  <!-- Isometric Hexagonal Vault: Three dynamic financial streams converging into a secure core -->
  <!-- Top Facet (Pemasukan) -->
  <path fill="#121614" d="
    M 128 36
    L 208 82
    L 136 123
    L 128 119
    L 120 123
    L 48 82
    Z
  "/>
  <!-- Bottom-Left Facet (Aset & Simpanan) -->
  <path fill="#121614" d="
    M 44 94
    L 120 138
    L 120 220
    L 44 176
    Z
  "/>
  <!-- Bottom-Right Facet (Alokasi & Anggaran) -->
  <path fill="#121614" d="
    M 212 94
    L 212 176
    L 136 220
    L 136 138
    Z
  "/>
</svg>
</g><text x="748.667" y="744" font-family="system-ui,-apple-system,'Segoe UI',Helvetica,Arial,sans-serif" font-size="12" fill="#8a8a8a" text-anchor="middle">16px</text><text x="592.6666666666667" y="780" font-family="system-ui,-apple-system,'Segoe UI',Helvetica,Arial,sans-serif" font-size="26" font-weight="700" fill="#161616">B · The Cashflow Prism</text><text x="592.6666666666667" y="814" font-family="system-ui,-apple-system,'Segoe UI',Helvetica,Arial,sans-serif" font-size="19" fill="#555">Prisma isometrik 3-sisi memadukan</text><text x="592.6666666666667" y="840" font-family="system-ui,-apple-system,'Segoe UI',Helvetica,Arial,sans-serif" font-size="19" fill="#555">Pemasukan, Aset &amp; Anggaran</text><rect x="1065.33" y="150" width="474.667" height="774" rx="18" fill="#fff" stroke="#e4e4e0" stroke-width="1"/><g filter="url(#grey)"><svg xmlns="http://www.w3.org/2000/svg" role="img" aria-labelledby="title-c" viewBox="0 0 256 256" x="1095.33" y="190" width="414.667" height="300" preserveAspectRatio="xMidYMid meet">
  <title id="c2-title-c">Duit Aing — Konsep C: The Minted Banknote</title>
  <!-- Tactile Banknote Silhouette with classic perforated notches and central D-coin core -->
  <path fill="#121614" fill-rule="evenodd" d="
    M 64 48
    L 192 48
    A 20 20 0 0 1 212 68
    L 212 110
    A 18 18 0 0 0 212 146
    L 212 188
    A 20 20 0 0 1 192 208
    L 64 208
    A 20 20 0 0 1 44 188
    L 44 146
    A 18 18 0 0 0 44 110
    L 44 68
    A 20 20 0 0 1 64 48
    Z
    M 96 90
    L 132 90
    A 38 38 0 0 1 170 128
    A 38 38 0 0 1 132 166
    L 96 166
    Z
    M 116 108
    L 130 108
    A 20 20 0 0 1 150 128
    A 20 20 0 0 1 130 148
    L 116 148
    Z
  "/>
  <!-- Central Minted Token Dot -->
  <circle cx="130" cy="128" r="9" fill="#121614"/>
</svg>
</g><g filter="url(#grey)"><svg xmlns="http://www.w3.org/2000/svg" role="img" aria-labelledby="title-c-lockup" viewBox="0 0 800 256" x="1095.33" y="514" width="414.667" height="120" preserveAspectRatio="xMidYMid meet">
  <title id="l2-title-c-lockup">Duit Aing — Lockup C</title>
  <!-- Symbol C (The Minted Banknote) -->
  <g id="l2-symbol">
    <path fill="#121614" fill-rule="evenodd" d="
      M 64 48
      L 192 48
      A 20 20 0 0 1 212 68
      L 212 110
      A 18 18 0 0 0 212 146
      L 212 188
      A 20 20 0 0 1 192 208
      L 64 208
      A 20 20 0 0 1 44 188
      L 44 146
      A 18 18 0 0 0 44 110
      L 44 68
      A 20 20 0 0 1 64 48
      Z
      M 96 90
      L 132 90
      A 38 38 0 0 1 170 128
      A 38 38 0 0 1 132 166
      L 96 166
      Z
      M 116 108
      L 130 108
      A 20 20 0 0 1 150 128
      A 20 20 0 0 1 130 148
      L 116 148
      Z
    "/>
    <circle cx="130" cy="128" r="9" fill="#121614"/>
  </g>
  <!-- Wordmark -->
  <g id="l2-wordmark">
    <text x="264" y="142" font-family="'Plus Jakarta Sans', Arial, sans-serif" font-weight="900" font-size="72" letter-spacing="2" fill="#121614">DUIT AING</text>
    <text x="268" y="182" font-family="'Plus Jakarta Sans', Arial, sans-serif" font-weight="700" font-size="20" letter-spacing="3" fill="#121614" opacity="0.6">MANAJEMEN KAS PRIBADI</text>
  </g>
</svg>
</g><g filter="url(#grey)"><svg xmlns="http://www.w3.org/2000/svg" role="img" aria-labelledby="title-c" viewBox="0 0 256 256" x="1095.33" y="660" width="64" height="64" preserveAspectRatio="xMidYMid meet">
  <title id="s264-title-c">Duit Aing — Konsep C: The Minted Banknote</title>
  <!-- Tactile Banknote Silhouette with classic perforated notches and central D-coin core -->
  <path fill="#121614" fill-rule="evenodd" d="
    M 64 48
    L 192 48
    A 20 20 0 0 1 212 68
    L 212 110
    A 18 18 0 0 0 212 146
    L 212 188
    A 20 20 0 0 1 192 208
    L 64 208
    A 20 20 0 0 1 44 188
    L 44 146
    A 18 18 0 0 0 44 110
    L 44 68
    A 20 20 0 0 1 64 48
    Z
    M 96 90
    L 132 90
    A 38 38 0 0 1 170 128
    A 38 38 0 0 1 132 166
    L 96 166
    Z
    M 116 108
    L 130 108
    A 20 20 0 0 1 150 128
    A 20 20 0 0 1 130 148
    L 116 148
    Z
  "/>
  <!-- Central Minted Token Dot -->
  <circle cx="130" cy="128" r="9" fill="#121614"/>
</svg>
</g><text x="1127.33" y="744" font-family="system-ui,-apple-system,'Segoe UI',Helvetica,Arial,sans-serif" font-size="12" fill="#8a8a8a" text-anchor="middle">64px</text><g filter="url(#grey)"><svg xmlns="http://www.w3.org/2000/svg" role="img" aria-labelledby="title-c" viewBox="0 0 256 256" x="1185.33" y="692" width="32" height="32" preserveAspectRatio="xMidYMid meet">
  <title id="s232-title-c">Duit Aing — Konsep C: The Minted Banknote</title>
  <!-- Tactile Banknote Silhouette with classic perforated notches and central D-coin core -->
  <path fill="#121614" fill-rule="evenodd" d="
    M 64 48
    L 192 48
    A 20 20 0 0 1 212 68
    L 212 110
    A 18 18 0 0 0 212 146
    L 212 188
    A 20 20 0 0 1 192 208
    L 64 208
    A 20 20 0 0 1 44 188
    L 44 146
    A 18 18 0 0 0 44 110
    L 44 68
    A 20 20 0 0 1 64 48
    Z
    M 96 90
    L 132 90
    A 38 38 0 0 1 170 128
    A 38 38 0 0 1 132 166
    L 96 166
    Z
    M 116 108
    L 130 108
    A 20 20 0 0 1 150 128
    A 20 20 0 0 1 130 148
    L 116 148
    Z
  "/>
  <!-- Central Minted Token Dot -->
  <circle cx="130" cy="128" r="9" fill="#121614"/>
</svg>
</g><text x="1201.33" y="744" font-family="system-ui,-apple-system,'Segoe UI',Helvetica,Arial,sans-serif" font-size="12" fill="#8a8a8a" text-anchor="middle">32px</text><g filter="url(#grey)"><svg xmlns="http://www.w3.org/2000/svg" role="img" aria-labelledby="title-c" viewBox="0 0 256 256" x="1243.33" y="708" width="16" height="16" preserveAspectRatio="xMidYMid meet">
  <title id="s216-title-c">Duit Aing — Konsep C: The Minted Banknote</title>
  <!-- Tactile Banknote Silhouette with classic perforated notches and central D-coin core -->
  <path fill="#121614" fill-rule="evenodd" d="
    M 64 48
    L 192 48
    A 20 20 0 0 1 212 68
    L 212 110
    A 18 18 0 0 0 212 146
    L 212 188
    A 20 20 0 0 1 192 208
    L 64 208
    A 20 20 0 0 1 44 188
    L 44 146
    A 18 18 0 0 0 44 110
    L 44 68
    A 20 20 0 0 1 64 48
    Z
    M 96 90
    L 132 90
    A 38 38 0 0 1 170 128
    A 38 38 0 0 1 132 166
    L 96 166
    Z
    M 116 108
    L 130 108
    A 20 20 0 0 1 150 128
    A 20 20 0 0 1 130 148
    L 116 148
    Z
  "/>
  <!-- Central Minted Token Dot -->
  <circle cx="130" cy="128" r="9" fill="#121614"/>
</svg>
</g><text x="1251.33" y="744" font-family="system-ui,-apple-system,'Segoe UI',Helvetica,Arial,sans-serif" font-size="12" fill="#8a8a8a" text-anchor="middle">16px</text><text x="1095.3333333333335" y="780" font-family="system-ui,-apple-system,'Segoe UI',Helvetica,Arial,sans-serif" font-size="26" font-weight="700" fill="#161616">C · The Minted Banknote</text><text x="1095.3333333333335" y="814" font-family="system-ui,-apple-system,'Segoe UI',Helvetica,Arial,sans-serif" font-size="19" fill="#555">Siluet uang kertas taktil Neo-Brutalisme</text><text x="1095.3333333333335" y="840" font-family="system-ui,-apple-system,'Segoe UI',Helvetica,Arial,sans-serif" font-size="19" fill="#555">dengan lekukan perforasi tepi</text></svg>
